<svg xmlns="http://www.w3.org/2000/svg" viewBox="0 0 120 120">
  <defs>
    <linearGradient id="goldGradient" x1="0%" y1="0%" x2="100%" y2="100%">
      <stop offset="0%" stop-color="#F9D25E" />
      <stop offset="100%" stop-color="#C79E34" />
    </linearGradient>
    <linearGradient id="ringGradient" x1="0%" y1="0%" x2="100%" y2="100%">
      <stop offset="0%" stop-color="#E0B34A" />
      <stop offset="100%" stop-color="#AA7D24" />
    </linearGradient>
  </defs>
  <rect width="120" height="120" rx="24" fill="none" />
  <circle cx="60" cy="60" r="44" fill="url(#goldGradient)" />
  <path d="M22 60c0-21.5 17.5-39 39-39s39 17.5 39 39-17.5 39-39 39-39-17.5-39-39Z" fill="none" stroke="#F8D36B" stroke-width="4" opacity="0.55" />
  <path d="M60 18c8.5 0 16.4 2.9 22.8 7.8M26.5 44.4c7-8.5 17.9-14.2 30.1-14.2 12.2 0 23.1 5.7 30.1 14.2M22 60h76M26.5 75.6c7 8.5 17.9 14.2 30.1 14.2 12.2 0 23.1-5.7 30.1-14.2M60 102c-8.5 0-16.4-2.9-22.8-7.8M93.5 75.6c-7 8.5-17.9 14.2-30.1 14.2-12.2 0-23.1-5.7-30.1-14.2" fill="none" stroke="#D8AF53" stroke-width="3" stroke-linecap="round" opacity="0.85" />
  <path d="M77 24l16-4-4 16 8 8-16 4-4 16-8-8-16 4 4-16-8-8 16-4 4-16 8 8Z" fill="#F8D36B" opacity="0.9" />
  <path d="M34 78c0 2.5 1.5 4.5 4 4.5s4-2 4-4.5-1.5-4.5-4-4.5-4 2-4 4.5Z" fill="#F7D36A" opacity="0.9" />
  <path d="M40 28c-3.5 0-6.5 2.8-6.5 6.3S36.5 40.5 40 40.5s6.5-2.8 6.5-6.3S43.5 28 40 28Z" fill="#F7D36A" opacity="0.9" />
  <path d="M68 96c-3 0-5.5 2.2-5.5 5s2.5 5 5.5 5 5.5-2.2 5.5-5-2.5-5-5.5-5Z" fill="#F7D36A" opacity="0.9" />
  <path d="M29 42h62" stroke="#D3A548" stroke-width="2" opacity="0.7" stroke-linecap="round" />
  <path d="M25 60h70" stroke="#D3A548" stroke-width="2" opacity="0.7" stroke-linecap="round" />
  <path d="M31 82h58" stroke="#D3A548" stroke-width="2" opacity="0.7" stroke-linecap="round" />
</svg>